<?xml version="1.0" encoding="UTF-8"?><svg xmlns="http://www.w3.org/2000/svg" xmlns:xlink="http://www.w3.org/1999/xlink" viewBox="0 0 459.84 634"><defs><style>.o,.p,.q,.r,.s{stroke-miterlimit:10;}.o,.p,.r{stroke:#231f20;}.o,.q{stroke-linecap:round;stroke-width:10px;}.o,.q,.r,.s{fill:none;}.t{fill:#000;}.t,.u,.v,.w,.x,.y,.z,.aa,.ab,.ac,.ad{stroke-width:0px;}.u{fill:#ff0;}.v{fill:#fdd0b1;}.p,.r{stroke-width:15.99px;}.p,.ab{fill:#231f20;}.w{fill:#ffbcd8;}.ae{filter:url(#a);}.q,.s{stroke:#000;}.x{fill:#fca2c8;}.y{fill:#f33;}.z{fill:#f2a159;}.aa{fill:#ef7f9d;}.s{stroke-width:3.77px;}.ac{fill:#ffd1d1;}.ad{fill:#bf0477;}</style><filter id="a" filterUnits="userSpaceOnUse"><feOffset dx="0" dy="0"/><feGaussianBlur result="b" stdDeviation="5"/><feFlood flood-color="#fff" flood-opacity="1"/><feComposite in2="b" operator="in"/><feComposite in="SourceGraphic"/></filter></defs><g id="c" class="ae"><g id="d"><path class="o" d="M427.15,597.69c29.4-8.76,32.1-30.51,23.21-46.07-9.97-17.44-30.49-15.43-33.84-14.97-.16.02-.27-.17-.17-.3,2.1-2.65,14.29-19.24,4.25-36.79-8.23-14.39-29.01-24.28-51.48-3.4-22.47,20.88-28.66,83.38-28.66,83.38"/><path class="o" d="M416.04,536.69c8.08-8.71,12.82-22.66,4.56-37.13-3.42-5.99-9.02-11.19-16.01-13.72"/><path class="o" d="M197.03,494.65l125.78,75.38c18.12,10.86,37.64,19.28,58.09,24.6,16.14,4.2,33.77,6.79,46.26,3.06,29.39-8.76,32.11-30.48,23.2-46.06-2.63-4.59-6.02-8.21-9.9-10.32"/><path class="o" d="M416.99,536.69l-12.08,1.79c-3.64.54-6.47,3.46-6.9,7.12l-.1.88c-.67,5.68,4.57,10.26,10.11,8.86h0c2.93-.74,5.21-3.05,5.92-5.99l3.06-12.65Z"/></g><g id="f"><path class="ab" d="M407.1,236.05c51.2-64.15,51.77-125.56,47-144.75-1.89-7.6-8.85-11.77-16.48-11.81-20.12-.06-82.31,24.57-122.1,74.11"/><path class="ab" d="M133.96,148.9c-4.7-81.99,30.32-132.4,45.3-145.29,5.93-5.11,14.02-4.47,20.26-.08,16.44,11.6,52.94,67.72,56.77,131.18"/><path class="ab" d="M406.81,274.01c19.04-78.14-16.17-149.28-105.63-177.82-89.46-28.54-159.28,9.08-188.9,83.85-17.26,43.57-11.39,87.16,16.32,122.58,0,0,26.63,40.52,87.55,60.8,61.4,18.75,106.54,1.12,106.54,1.12,43.03-12.85,73.04-44.99,84.14-90.53Z"/><path class="y" d="M177.85,182.9c3.95-13.23,16.62-21.08,28.26-17.6s15.48,16.58,11.53,29.8c-3.95,13.23-16.62,21.08-28.26,17.6-11.64-3.49-15.48-16.58-11.53-29.8Z"/><path class="u" d="M351.66,238.36c4.42-13.08-1.37-26.82-12.88-30.72-11.51-3.9-22.2,4.55-26.62,17.63-4.42,13.08,1.37,26.82,12.88,30.72,11.51,3.9,22.2-4.55,26.62-17.63Z"/><path class="q" d="M78.82,168.26s28.94,3.76,55.17,30.41"/><path class="q" d="M66.64,205.63s27.61-3.25,58.19,12.86"/><path class="q" d="M65.5,241.64s27.83-7.91,57.84-1.19"/><path class="q" d="M441.58,277.26s-26.22-12.84-62.75-5.05"/><path class="q" d="M431.19,315.18s-21.26-17.93-55.65-21.36"/><path class="q" d="M412.32,345.89s-18.87-21.97-47.62-32.86"/><path class="t" d="M229.89,238.4c2.53-8.46,15.9-8.67,27.39-5.2,11.5,3.44,22.59,11.1,20.06,19.56-2.53,8.46-20.5,14.98-29.58,12.08s-20.4-17.98-17.87-26.45Z"/><path class="aa" d="M266.25,286.18c.28.15.55.31.85.47,3.6,1.93,6.94,3.64,9.84,6.71.39.41.81.91.81,1.52.03.62-.38,1.21-.77,1.7-2.23,2.63-5.3,4.14-8.31,5.45-11.83,5.04-25.05,7.5-36.52,3.06-9.92-3.81-17.8-12.84-20.89-23.88-.15-.54-.27-1.09-.13-1.63.15-.57.58-1.01,1.02-1.36,2.57-2.07,5.85-2.31,8.91-2.86,5.3-.9,10.52-2.84,15.34-5.67,2.23-1.3,4.42-2.8,6.88-3.12,4.35-.56,4.88,3.08,6.84,5.97,2.21,3.23,5.34,6.31,8.49,8.41,2.57,1.69,5.03,3.71,7.63,5.22Z"/><path class="s" d="M281.29,292.64s-21.82,23.61-46.74,15.65c-23.89-7.62-29.08-39.85-29.08-39.85"/><path class="q" d="M178.05,246.76s7.27,18.27,30.45,25.67c27.92,8.91,44.88-19.65,44.88-19.65"/><path class="q" d="M314.6,290.33s-16.48,10.69-39.67,3.29c-27.92-8.91-25.25-42.03-25.25-42.03"/><path class="ac" d="M374.64,151.82c-3.32-5.24-1.25-11.32,3.07-15.75,10.38-10.66,29.76-18.96,36.5-21.51,11.05-4.19,18.61-4.37,17.64,7.74-1.78,22.38-11.16,50.54-21.33,64.48-3.57,4.92-10.14,6.03-13.28.85l-22.6-35.8Z"/><path class="ac" d="M209.12,99c5.73-2.35,7.56-8.51,6.6-14.62-2.31-14.71-13.32-32.71-17.34-38.69-6.59-9.82-12.66-14.35-18.86-3.91-11.48,19.29-20.1,47.69-19.86,64.95.07,6.08,4.79,10.8,10.34,8.39l39.12-16.11Z"/><path class="t" d="M229.89,238.4c2.53-8.46,15.9-8.67,27.39-5.2,11.5,3.44,22.59,11.1,20.06,19.56-2.53,8.46-20.5,14.98-29.58,12.08s-20.4-17.98-17.87-26.45Z"/><path class="q" d="M178.05,246.76s7.27,18.27,30.45,25.67c27.92,8.91,44.88-19.65,44.88-19.65"/><path class="q" d="M314.6,290.33s-16.48,10.69-39.67,3.29c-27.92-8.91-25.25-42.03-25.25-42.03"/></g><g id="g"><path class="w" d="M248.6,269.8s17.59-21.3,23.58-19.91c6.02,1.41,26.39,18.6,34.51,30.6,11.36,16.73,13.72,35.85,7.06,54.07-7.17,19.5-22.26,31-22.26,31,0,0,21.7-1.08,40.45,11.12,18.74,12.19,28.46,29.53,30.37,39.56,1.88,10.02,5.53,21.85,2.6,24.82-2.92,2.94-29.99,4.82-30.62,8.52-.62,3.74,24.21,14.64,24.41,20.15.23,5.53-9.19,35.23-37.35,45.06-28.16,9.83-47.22,3.33-47.22,3.33,0,0,8.9,26.09-2.24,49.38-9.11,19.06-20.02,27.55-32.26,26.04-12.22-1.54-24.7-23.92-24.7-23.92,0,0,.86,38.29-8.92,38.96-9.81.65-9.13-9.44-12.57-10.29-2.82-.69-1.79,7.61-10.2,9.92-8.41,2.31-34.5-7.05-49.78-30.03-15.27-22.99-12.28-44.8-12.28-44.8,0,0-17.52,19.13-49.83,16.4-32.31-2.72-44.19-26.68-46.58-30.65s7.94-20.1,10.15-22.55c2.21-2.44,8.89-7.46,7.52-9.97-1.37-2.52-13.6,3.59-20.21,4.15-6.61.56-14.78.72-18.3-7.93s-9.31-34.25,7.02-55.76c16.33-21.51,36.76-27.79,36.76-27.79,0,0-26.79-17.38-27.84-48.57-1.05-31.19,13.42-54.15,17.56-56.02,4.14-1.87,25.39,8.98,25.39,8.98,0,0-13.88-22.25-6.94-30.25,6.95-8.03,13.4,4.41,17.71,3.08,4.31-1.33-.02-17.31,10.82-18.72,8.13-1.05,22.66-3.34,43.38,5.58,21.84,9.38,30.83,27.63,30.83,27.63,0,0-.93-19.9,11.87-35.14,10.14-12.06,26.4-18.42,39.4-20.08s28.47-.22,34.08,2.75c5.61,2.98,4.62,31.26,4.62,31.26Z"/><path class="x" d="M252.48,383.42c1.47,6.36,12.58,4.64,22.5-1.46,7.58-4.65,18.27-13.78,17.41-16.06-.86-2.28-18.44.81-25.19,3.37-6.74,2.6-15.87,9.12-14.71,14.16Z"/><path class="x" d="M228.76,479.47c-4.43,5.93,9.23,19.04,17.26,24.6,7.62,5.27,26.63,16.76,28.15,14.03,1.55-2.72-8.29-21.74-19.23-30.87-9.6-8.01-22.39-12.79-26.18-7.75Z"/><path class="x" d="M146.29,488.55c-5.33-3.25-14.16,8.48-18.37,18.88-4.21,10.4-8.92,24.39-6.7,25.89,2.22,1.5,13.84-10.59,21.91-23.39,5.07-8.05,7.92-18.47,3.15-21.38Z"/><path class="x" d="M47.74,399.29c-.59,2.04,18.4,12.12,30.09,14.6,11.69,2.48,21.21-.08,22.37-5.04,1.16-4.97-12.25-10.5-20.81-11.61-11.12-1.44-31.04.05-31.64,2.05Z"/><path class="x" d="M159.15,292.58c-3,.44-3.06,17.36-1.41,25.5,1.65,8.14,5.59,18.23,10.06,18.53,4.48.34,7.22-12.91,3.3-24.85-1.89-5.77-8.93-19.62-11.96-19.19Z"/><path class="ad" d="M249.53,380.52c-3.62-5.22-30.4,7.58-48.23-2.83-17.83-10.41-26.36-39.71-31.24-38.51-4.88,1.2-2.89,29.63-20.89,46.81-16.46,15.73-45.45,16.62-45.54,22.61-.09,5.6,26.34,7.91,39.49,26.5,15.32,21.71-3.01,46.66,4.25,50.75,7.26,4.1,16.6-21.44,40.85-23.27,23.34-1.79,37.45,16.72,42.02,11.92,5.34-5.66-14.04-26.44-7-51.72,8.08-29.23,30.06-36.86,26.3-42.26Z"/><path class="z" d="M179.83,388.58c-4.42-.73-25.92,16.39-25.84,19.94.08,3.55,10.9,31.37,16.18,34.17,5.28,2.8,31.5-4.69,33.03-7.18,1.51-2.46,4.86-29.77,2.86-33.01-2-3.24-22.02-13.23-26.24-13.93Z"/><path class="v" d="M211.53,388.74c-6.41,1.72-10.88,9.17-7.96,16.23,3.13,7.52,11.6,9.8,17.16,7.04,4.88-2.39,8.33-8.25,5.85-14.97-1.52-4.14-6.93-10.48-15.05-8.31Z"/><path class="v" d="M195.65,435.16c-4.54,6.79-1.38,15.45,4.74,18.52,7.99,4.03,14.42-1.02,16.71-5.55,3.07-6.13,1.64-13.55-5.17-16.85-6.81-3.3-12.45-1.84-16.29,3.88Z"/><path class="v" d="M171.8,438.96c-5.38-2.68-12.82-2.07-16.84,5.8-3.69,7.24.19,13.4,5.75,16.35,5.55,2.95,12.23,1.4,15.82-5.39,3.6-6.79,1.04-13.87-4.73-16.76Z"/><path class="v" d="M150.2,397.88c-7.91-4.2-14.13-.52-17.41,5.67-3.28,6.19-1.09,13.11,6.38,16.68,6.42,3.09,13.16-.17,15.72-6.39,2.78-6.77,1.98-12.42-4.69-15.97Z"/><path class="v" d="M173.63,366.73c-6.88,2-11.06,9.5-8.32,16.04,2.12,5.13,8.27,9.8,15.14,7.55,6.88-2.21,9.58-9.16,7.67-15.09-1.89-5.95-7.74-10.46-14.5-8.5Z"/></g><g id="h"><path class="x" d="M170.5,255.86c.09-.15.98-1.13,1.56-1.75,0,0,.79-.85,1.61-1.64,1.92-1.88,4.58-3.96,5.13-4.38,12.73-9.5,31.1-12.31,31.1-12.31,16.09-2.51,25.19-1.96,34.08,2.75,5.61,2.98,4.62,31.26,4.62,31.26,0,0,17.59-21.3,23.58-19.91,6.02,1.41,26.39,18.6,34.51,30.6,2.08,3.08,4.22,6.64,6.11,11.16.42,1,1.5,3.58,2.43,6.96.11.41.54,1.97.97,4.07.41,1.99.61,2.99.58,3.27-.39,3.2-34.25,8.49-78.62-5.18-61.79-19.04-68.84-43.02-67.64-44.92Z"/></g><g id="i"><path class="ab" d="M252.38,236.16l-49.72-6.97-24.6,17.57s7.27,18.27,30.45,25.67c27.92,8.91,44.88-19.65,44.88-19.65"/><path class="ab" d="M264.37,242.36l59.81,18.33-9.58,29.64s-16.48,10.69-39.67,3.29c-27.92-8.91-25.25-42.03-25.25-42.03"/></g><g id="j"><path class="t" d="M229.89,238.4c2.53-8.46,15.9-8.67,27.39-5.2,11.5,3.44,22.59,11.1,20.06,19.56-2.53,8.46-20.5,14.98-29.58,12.08s-20.4-17.98-17.87-26.45Z"/><path class="q" d="M178.05,246.76s7.27,18.27,30.45,25.67c27.92,8.91,44.88-19.65,44.88-19.65"/><path class="q" d="M314.6,290.33s-16.48,10.69-39.67,3.29c-27.92-8.91-25.25-42.03-25.25-42.03"/></g><g id="k"><ellipse class="p" cx="108.24" cy="383.89" rx="10.74" ry="14.02" transform="translate(-282.22 302.5) rotate(-62.48)"/><ellipse class="p" cx="88.46" cy="400.46" rx="10.73" ry="13.38" transform="translate(-281.99 224.51) rotate(-52.14)"/><ellipse class="p" cx="117.29" cy="359.61" rx="10.92" ry="14.96" transform="translate(-260.95 362.29) rotate(-72.34)"/><path class="p" d="M94.39,363.71c-4.32,14.96-25.11,27-35.33,18.1-2.51-2.19-3.44-4.63-3.41-7.19.07-7.23,7.78-15.32,8.79-20.81,1.78-9.69-.97-24.81,11.08-25.28,13.59-.52,22.66,22.05,18.87,35.18Z"/><path class="p" d="M125.65,333.3c-.09,5.94-6.36,10.66-14.01,10.55-7.65-.11-13.79-5.01-13.7-10.95.09-5.94,6.36-10.66,14.01-10.55,7.65.11,13.79,5.01,13.7,10.95Z"/><path class="ab" d="M42.06,383.89c14.23,8.53,18.45,12.19,25.49,19.95,2.04,2.41,4.89-.27,5.92-3.25l25.68-74.03c.91-2.62-1.32-5.26-4.05-4.8-9.74.03-20.03-.25-30.81-.97-16.38-1.09-25.98-4.98-38.71-2.75-2.56.45-4.82,2.03-6.01,4.35-6.33,12.24-10.73,44.49-.31,49.66,18.3,9.08,15.2,7.27,22.82,11.83Z"/><path class="p" d="M105.87,323.38l-28.79,4.89c-.97.16-1.79.81-2.18,1.72l-1.27,2.96-9.42,21.84-3.86,17.59-1.63,7.42c-.19.89.04,1.81.62,2.51l17.95,21.21c2.04,2.41,5.92,1.68,6.95-1.3l25.68-74.03c.91-2.62-1.32-5.26-4.05-4.8Z"/></g><g id="l"><ellipse class="ab" cx="280.11" cy="416.86" rx="10.73" ry="14.02" transform="translate(-222.09 411.26) rotate(-55.46)"/><ellipse class="ab" cx="301.75" cy="402.82" rx="10.73" ry="13.38" transform="translate(-196.62 332.51) rotate(-45.13)"/><ellipse class="ab" cx="268.17" cy="439.86" rx="10.92" ry="14.96" transform="translate(-243.48 499.86) rotate(-65.32)"/><path class="ab" d="M291.39,438.58c6.11-14.32,28.21-23.73,37.27-13.65,2.23,2.48,2.85,5.02,2.51,7.55-.95,7.17-9.59,14.25-11.26,19.58-2.95,9.4-2.06,24.74-14.07,23.74-13.55-1.14-19.81-24.65-14.45-37.22Z"/><path class="ab" d="M256.67,464.95c.81-5.88,7.61-9.81,15.19-8.76,7.58,1.04,13.07,6.66,12.27,12.54-.81,5.88-7.61,9.81-15.19,8.76-7.58-1.04-13.07-6.66-12.27-12.54Z"/><path class="ab" d="M344.77,425.65c-13.52-8-14.97-13.94-21.06-21.56-1.73-2.64-5.67-2.39-7.06.44l-34.5,70.35c-1.22,2.49.67,5.38,3.44,5.26,9.67,1.15,19.85,2.69,30.46,4.72,16.13,3.08,25.18,8.11,38.09,7.45,2.6-.13,5.03-1.43,6.5-3.58,7.77-11.37,16.14-42.98,6.35-49.25-21.68-13.9-14.29-9.13-22.22-13.82Z"/><path class="ab" d="M275.09,477.21l29.17-1.34c.98-.05,1.88-.59,2.38-1.44l1.62-2.78,12-20.53,5.97-16.99,2.52-7.17c.3-.86.19-1.8-.31-2.56l-15.23-23.24c-1.73-2.64-5.67-2.39-7.06.44l-34.5,70.35c-1.22,2.49.67,5.38,3.44,5.26Z"/><ellipse class="p" cx="280.11" cy="416.86" rx="10.73" ry="14.02" transform="translate(-222.09 411.26) rotate(-55.46)"/><ellipse class="p" cx="301.75" cy="402.82" rx="10.73" ry="13.38" transform="translate(-196.62 332.51) rotate(-45.13)"/><ellipse class="p" cx="268.17" cy="439.86" rx="10.92" ry="14.96" transform="translate(-243.48 499.86) rotate(-65.32)"/><path class="p" d="M291.39,438.58c6.11-14.32,28.21-23.73,37.27-13.65,2.23,2.48,2.85,5.02,2.51,7.55-.95,7.17-9.59,14.25-11.26,19.58-2.95,9.4-2.06,24.74-14.07,23.74-13.55-1.14-19.81-24.65-14.45-37.22Z"/><path class="p" d="M256.67,464.95c.81-5.88,7.61-9.81,15.19-8.76,7.58,1.04,13.07,6.66,12.27,12.54-.81,5.88-7.61,9.81-15.19,8.76-7.58-1.04-13.07-6.66-12.27-12.54Z"/><path class="ab" d="M344.77,425.65c-13.52-8-14.97-13.94-21.06-21.56-1.73-2.64-5.67-2.39-7.06.44l-34.5,70.35c-1.22,2.49.67,5.38,3.44,5.26,9.67,1.15,19.85,2.69,30.46,4.72,16.13,3.08,25.18,8.11,38.09,7.45,2.6-.13,5.03-1.43,6.5-3.58,7.77-11.37,16.14-42.98,6.35-49.25-21.68-13.9-14.29-9.13-22.22-13.82Z"/><path class="p" d="M275.09,477.21l29.17-1.34c.98-.05,1.88-.59,2.38-1.44l1.62-2.78,12-20.53,5.97-16.99,2.52-7.17c.3-.86.19-1.8-.31-2.56l-15.23-23.24c-1.73-2.64-5.67-2.39-7.06.44l-34.5,70.35c-1.22,2.49.67,5.38,3.44,5.26Z"/><ellipse class="r" cx="280.11" cy="416.86" rx="10.73" ry="14.02" transform="translate(-222.09 411.26) rotate(-55.46)"/><ellipse class="r" cx="301.75" cy="402.82" rx="10.73" ry="13.38" transform="translate(-196.62 332.51) rotate(-45.13)"/><ellipse class="r" cx="268.17" cy="439.86" rx="10.92" ry="14.96" transform="translate(-243.48 499.86) rotate(-65.32)"/><path class="r" d="M291.39,438.58c6.11-14.32,28.21-23.73,37.27-13.65,2.23,2.48,2.85,5.02,2.51,7.55-.95,7.17-9.59,14.25-11.26,19.58-2.95,9.4-2.06,24.74-14.07,23.74-13.55-1.14-19.81-24.65-14.45-37.22Z"/><path class="r" d="M256.67,464.95c.81-5.88,7.61-9.81,15.19-8.76,7.58,1.04,13.07,6.66,12.27,12.54-.81,5.88-7.61,9.81-15.19,8.76-7.58-1.04-13.07-6.66-12.27-12.54Z"/><path class="r" d="M344.77,425.65c-13.52-8-14.97-13.94-21.06-21.56-1.73-2.64-5.67-2.39-7.06.44l-34.5,70.35c-1.22,2.49.67,5.38,3.44,5.26,9.67,1.15,19.85,2.69,30.46,4.72,16.13,3.08,25.18,8.11,38.09,7.45,2.6-.13,5.03-1.43,6.5-3.58,7.77-11.37,16.14-42.98,6.35-49.25-21.68-13.9-14.29-9.13-22.22-13.82Z"/><path class="r" d="M275.09,477.21l29.17-1.34c.98-.05,1.88-.59,2.38-1.44l1.62-2.78,12-20.53,5.97-16.99,2.52-7.17c.3-.86.19-1.8-.31-2.56l-15.23-23.24c-1.73-2.64-5.67-2.39-7.06.44l-34.5,70.35c-1.22,2.49.67,5.38,3.44,5.26Z"/></g><g id="m"><ellipse class="p" cx="94.83" cy="478.54" rx="10.91" ry="8.35" transform="translate(-296.98 187.89) rotate(-42.22)"/><ellipse class="p" cx="101.5" cy="497.5" rx="10.41" ry="8.36" transform="translate(-247.85 129.04) rotate(-31.94)"/><ellipse class="p" cx="79.63" cy="465.31" rx="11.65" ry="8.49" transform="translate(-336.12 241.69) rotate(-52.01)"/><path class="p" d="M76.37,483.14c9.71,7.24,12.8,25.69,3.54,30.72-8.72,4.74-13.88-8.54-18.92-11.57-6.57-3.94-18.32-6.06-15.38-14.98,3.33-10.06,22.23-10.52,30.76-4.18Z"/><ellipse class="p" cx="58.83" cy="462.09" rx="10.8" ry="8.36" transform="translate(-393.19 349.52) rotate(-68.76)"/><path class="p" d="M50.04,463.43l-7.5,24.56-33.49,50.03c-1.28,2.68.61,4.54,3.14,6.1l25.07,17.33c4,2.45,9.23,1.16,11.62-2.88l23.76-32.4c4.74-9.86,16.06-11.93,25.31-17.75l7.45-4.69c1.18-.43,1.38-2.01.35-2.72l-55.37-37.74c-.13-.09-.31-.02-.35.14Z"/><ellipse class="ac" cx="94.83" cy="478.54" rx="10.91" ry="8.35" transform="translate(-296.98 187.89) rotate(-42.22)"/><ellipse class="ac" cx="101.5" cy="497.5" rx="10.41" ry="8.36" transform="translate(-247.85 129.04) rotate(-31.94)"/><ellipse class="ac" cx="79.63" cy="465.31" rx="11.65" ry="8.49" transform="translate(-336.12 241.69) rotate(-52.01)"/><path class="ac" d="M76.37,483.14c9.71,7.24,12.8,25.69,3.54,30.72-8.72,4.74-13.88-8.54-18.92-11.57-6.57-3.94-18.32-6.06-15.38-14.98,3.33-10.06,22.23-10.52,30.76-4.18Z"/><ellipse class="ac" cx="58.83" cy="462.09" rx="10.8" ry="8.36" transform="translate(-393.19 349.52) rotate(-68.76)"/></g><g id="n"><ellipse class="p" cx="217.9" cy="541.84" rx="10.91" ry="8.35" transform="translate(-307.59 287.02) rotate(-42.22)"/><ellipse class="p" cx="224.57" cy="560.8" rx="10.41" ry="8.36" transform="translate(-262.7 203.74) rotate(-31.94)"/><ellipse class="p" cx="202.69" cy="528.61" rx="11.65" ry="8.49" transform="translate(-338.69 363.03) rotate(-52.01)"/><path class="p" d="M199.43,546.44c9.71,7.24,12.8,25.69,3.54,30.72-8.72,4.74-13.88-8.54-18.92-11.57-6.57-3.94-18.32-6.06-15.38-14.98,3.33-10.06,22.23-10.52,30.76-4.18Z"/><ellipse class="p" cx="181.89" cy="525.39" rx="10.8" ry="8.36" transform="translate(-373.7 504.59) rotate(-68.76)"/><path class="p" d="M173.11,526.73l-7.5,24.56-33.49,50.03c-1.28,2.68.58,4.46,3.11,6.01l25.1,17.42c4,2.45,9.23,1.16,11.62-2.88l23.76-32.4c4.74-9.86,16.06-11.93,25.31-17.75l7.45-4.69c1.18-.43,1.38-2.01.35-2.72l-55.37-37.74c-.13-.09-.31-.02-.35.14Z"/><ellipse class="ac" cx="217.9" cy="541.84" rx="10.91" ry="8.35" transform="translate(-307.59 287.02) rotate(-42.22)"/><ellipse class="ac" cx="224.57" cy="560.8" rx="10.41" ry="8.36" transform="translate(-262.7 203.74) rotate(-31.94)"/><ellipse class="ac" cx="202.69" cy="528.61" rx="11.65" ry="8.49" transform="translate(-338.69 363.03) rotate(-52.01)"/><path class="ac" d="M199.43,546.44c9.71,7.24,12.8,25.69,3.54,30.72-8.72,4.74-13.88-8.54-18.92-11.57-6.57-3.94-18.32-6.06-15.38-14.98,3.33-10.06,22.23-10.52,30.76-4.18Z"/><ellipse class="ac" cx="181.89" cy="525.39" rx="10.8" ry="8.36" transform="translate(-373.7 504.59) rotate(-68.76)"/></g></g></svg>